<mxfile host="app.diagrams.net" modified="2022-04-12T10:23:38.776Z" agent="5.0 (Windows NT 10.0; Win64; x64) AppleWebKit/537.36 (KHTML, like Gecko) Chrome/100.0.4896.75 Safari/537.36" etag="b2r5lOuE9yUtiGHR5Ego" version="17.4.0" type="github">
  <diagram id="LG_1dP9Xj0j1BE6sNrth" name="Page-1">
    <mxGraphModel dx="1792" dy="811" grid="1" gridSize="10" guides="1" tooltips="1" connect="1" arrows="1" fold="1" page="1" pageScale="1" pageWidth="850" pageHeight="1100" math="0" shadow="0">
      <root>
        <mxCell id="0" />
        <mxCell id="1" parent="0" />
        <mxCell id="jVHy-TlEPuJ3F6lB3WnW-81" value="" style="group" vertex="1" connectable="0" parent="1">
          <mxGeometry x="397" y="600" width="502" height="121" as="geometry" />
        </mxCell>
        <mxCell id="jVHy-TlEPuJ3F6lB3WnW-1" value="" style="rounded=1;whiteSpace=wrap;html=1;dashed=1;strokeColor=none;strokeWidth=2;fillColor=#E6E6E6;fontFamily=Verdana;fontSize=12;fontColor=#00BEF2" vertex="1" parent="jVHy-TlEPuJ3F6lB3WnW-81">
          <mxGeometry width="502" height="90" as="geometry" />
        </mxCell>
        <mxCell id="jVHy-TlEPuJ3F6lB3WnW-52" value="Azure Function" style="whiteSpace=wrap;html=1;dashed=1;strokeColor=none;strokeWidth=2;fillColor=#3399FF;fontFamily=Helvetica;fontSize=18;fontColor=#FFFFFF;fontStyle=1" vertex="1" parent="jVHy-TlEPuJ3F6lB3WnW-81">
          <mxGeometry x="2" y="75" width="500" height="46" as="geometry" />
        </mxCell>
        <mxCell id="jVHy-TlEPuJ3F6lB3WnW-80" value="" style="group" vertex="1" connectable="0" parent="1">
          <mxGeometry x="40.75" y="120" width="165.25" height="670" as="geometry" />
        </mxCell>
        <mxCell id="jVHy-TlEPuJ3F6lB3WnW-2" value="" style="rounded=1;whiteSpace=wrap;html=1;dashed=1;strokeColor=none;strokeWidth=2;fillColor=#E6E6E6;fontFamily=Verdana;fontSize=12;fontColor=#00BEF2" vertex="1" parent="jVHy-TlEPuJ3F6lB3WnW-80">
          <mxGeometry width="165" height="670" as="geometry" />
        </mxCell>
        <mxCell id="jVHy-TlEPuJ3F6lB3WnW-8" value="Customer&lt;br&gt;(Supplier/&lt;br&gt;Rotablepool)" style="whiteSpace=wrap;html=1;dashed=1;strokeColor=none;strokeWidth=2;fillColor=#3399FF;fontFamily=Helvetica;fontSize=18;fontColor=#FFFFFF;fontStyle=1" vertex="1" parent="jVHy-TlEPuJ3F6lB3WnW-80">
          <mxGeometry x="0.25" width="165" height="60" as="geometry" />
        </mxCell>
        <mxCell id="jVHy-TlEPuJ3F6lB3WnW-79" value="" style="group" vertex="1" connectable="0" parent="1">
          <mxGeometry x="219.5" y="120" width="160.5" height="430" as="geometry" />
        </mxCell>
        <mxCell id="jVHy-TlEPuJ3F6lB3WnW-3" value="" style="rounded=1;whiteSpace=wrap;html=1;dashed=1;strokeColor=none;strokeWidth=2;fillColor=#E6E6E6;fontFamily=Verdana;fontSize=12;fontColor=#00BEF2" vertex="1" parent="jVHy-TlEPuJ3F6lB3WnW-79">
          <mxGeometry x="2.431818181818182" width="155.63636363636365" height="430" as="geometry" />
        </mxCell>
        <mxCell id="jVHy-TlEPuJ3F6lB3WnW-78" value="Event Hub" style="whiteSpace=wrap;html=1;dashed=1;strokeColor=none;strokeWidth=2;fillColor=#3399FF;fontFamily=Helvetica;fontSize=18;fontColor=#FFFFFF;fontStyle=1;container=1;" vertex="1" parent="jVHy-TlEPuJ3F6lB3WnW-79">
          <mxGeometry width="160.50000000000003" height="60" as="geometry" />
        </mxCell>
        <mxCell id="jVHy-TlEPuJ3F6lB3WnW-77" value="" style="group" vertex="1" connectable="0" parent="1">
          <mxGeometry x="397.5" y="120" width="165.5" height="430" as="geometry" />
        </mxCell>
        <mxCell id="jVHy-TlEPuJ3F6lB3WnW-4" value="" style="rounded=1;whiteSpace=wrap;html=1;dashed=1;strokeColor=none;strokeWidth=2;fillColor=#E6E6E6;fontFamily=Verdana;fontSize=12;fontColor=#00BEF2" vertex="1" parent="jVHy-TlEPuJ3F6lB3WnW-77">
          <mxGeometry width="165" height="430" as="geometry" />
        </mxCell>
        <mxCell id="jVHy-TlEPuJ3F6lB3WnW-10" value="Azure Blob Service" style="whiteSpace=wrap;html=1;dashed=1;strokeColor=none;strokeWidth=2;fillColor=#3399FF;fontFamily=Helvetica;fontSize=18;fontColor=#FFFFFF;fontStyle=1" vertex="1" parent="jVHy-TlEPuJ3F6lB3WnW-77">
          <mxGeometry x="0.5" width="165" height="60" as="geometry" />
        </mxCell>
        <mxCell id="jVHy-TlEPuJ3F6lB3WnW-76" value="" style="group" vertex="1" connectable="0" parent="1">
          <mxGeometry x="580" y="120" width="165" height="470" as="geometry" />
        </mxCell>
        <mxCell id="jVHy-TlEPuJ3F6lB3WnW-5" value="" style="rounded=1;whiteSpace=wrap;html=1;dashed=1;strokeColor=none;strokeWidth=2;fillColor=#E6E6E6;fontFamily=Verdana;fontSize=12;fontColor=#00BEF2" vertex="1" parent="jVHy-TlEPuJ3F6lB3WnW-76">
          <mxGeometry width="165" height="470" as="geometry" />
        </mxCell>
        <mxCell id="jVHy-TlEPuJ3F6lB3WnW-11" value="Data Factory" style="whiteSpace=wrap;html=1;dashed=1;strokeColor=none;strokeWidth=2;fillColor=#3399FF;fontFamily=Helvetica;fontSize=18;fontColor=#FFFFFF;fontStyle=1" vertex="1" parent="jVHy-TlEPuJ3F6lB3WnW-76">
          <mxGeometry width="165" height="60" as="geometry" />
        </mxCell>
        <mxCell id="jVHy-TlEPuJ3F6lB3WnW-75" value="" style="group" vertex="1" connectable="0" parent="1">
          <mxGeometry x="760" y="120" width="165" height="420" as="geometry" />
        </mxCell>
        <mxCell id="jVHy-TlEPuJ3F6lB3WnW-6" value="" style="rounded=1;whiteSpace=wrap;html=1;dashed=1;strokeColor=none;strokeWidth=2;fillColor=#E6E6E6;fontFamily=Verdana;fontSize=12;fontColor=#00BEF2" vertex="1" parent="jVHy-TlEPuJ3F6lB3WnW-75">
          <mxGeometry width="165" height="420" as="geometry" />
        </mxCell>
        <mxCell id="jVHy-TlEPuJ3F6lB3WnW-12" value="SkyThread API" style="whiteSpace=wrap;html=1;dashed=1;strokeColor=none;strokeWidth=2;fillColor=#3399FF;fontFamily=Helvetica;fontSize=18;fontColor=#FFFFFF;fontStyle=1" vertex="1" parent="jVHy-TlEPuJ3F6lB3WnW-75">
          <mxGeometry width="165" height="60" as="geometry" />
        </mxCell>
        <mxCell id="jVHy-TlEPuJ3F6lB3WnW-74" value="" style="group" vertex="1" connectable="0" parent="1">
          <mxGeometry x="950" y="120" width="165" height="670" as="geometry" />
        </mxCell>
        <mxCell id="jVHy-TlEPuJ3F6lB3WnW-7" value="" style="rounded=1;whiteSpace=wrap;html=1;dashed=1;strokeColor=none;strokeWidth=2;fillColor=#E6E6E6;fontFamily=Verdana;fontSize=12;fontColor=#00BEF2" vertex="1" parent="jVHy-TlEPuJ3F6lB3WnW-74">
          <mxGeometry width="165" height="670" as="geometry" />
        </mxCell>
        <mxCell id="jVHy-TlEPuJ3F6lB3WnW-13" value="Service Bus" style="whiteSpace=wrap;html=1;dashed=1;strokeColor=none;strokeWidth=2;fillColor=#3399FF;fontFamily=Helvetica;fontSize=18;fontColor=#FFFFFF;fontStyle=1" vertex="1" parent="jVHy-TlEPuJ3F6lB3WnW-74">
          <mxGeometry width="165" height="60" as="geometry" />
        </mxCell>
        <mxCell id="jVHy-TlEPuJ3F6lB3WnW-9" value="Event Hub" style="whiteSpace=wrap;html=1;dashed=1;strokeColor=none;strokeWidth=2;fillColor=#3399FF;fontFamily=Helvetica;fontSize=18;fontColor=#FFFFFF;fontStyle=1" vertex="1" parent="1">
          <mxGeometry x="220" y="120" width="165" height="60" as="geometry" />
        </mxCell>
        <mxCell id="jVHy-TlEPuJ3F6lB3WnW-14" value="" style="verticalLabelPosition=bottom;html=1;verticalAlign=top;strokeColor=none;fillColor=#3399FF;shape=mxgraph.azure.tablet;dashed=1;fontFamily=Helvetica;fontSize=14;fontColor=#004C99" vertex="1" parent="1">
          <mxGeometry x="66" y="401" width="50" height="37.5" as="geometry" />
        </mxCell>
        <mxCell id="jVHy-TlEPuJ3F6lB3WnW-15" value="" style="verticalLabelPosition=bottom;html=1;verticalAlign=top;strokeColor=none;fillColor=#3399FF;shape=mxgraph.azure.mobile;dashed=1;fontFamily=Helvetica;fontSize=14;fontColor=#004C99" vertex="1" parent="1">
          <mxGeometry x="146" y="395" width="35" height="50" as="geometry" />
        </mxCell>
        <mxCell id="jVHy-TlEPuJ3F6lB3WnW-16" value="Devices" style="verticalLabelPosition=bottom;html=1;verticalAlign=top;strokeColor=none;fillColor=#3399FF;shape=mxgraph.azure.laptop;dashed=1;fontFamily=Helvetica;fontSize=14;fontColor=#004C99" vertex="1" parent="1">
          <mxGeometry x="96" y="451" width="50" height="30" as="geometry" />
        </mxCell>
        <mxCell id="jVHy-TlEPuJ3F6lB3WnW-17" value="Applications" style="verticalLabelPosition=bottom;html=1;verticalAlign=top;strokeColor=none;fillColor=#3399FF;shape=mxgraph.azure.mobile_services;dashed=1;fontFamily=Helvetica;fontSize=14;fontColor=#004C99" vertex="1" parent="1">
          <mxGeometry x="107" y="203" width="32.5" height="50" as="geometry" />
        </mxCell>
        <mxCell id="jVHy-TlEPuJ3F6lB3WnW-18" value="Social" style="verticalLabelPosition=bottom;html=1;verticalAlign=top;strokeColor=none;fillColor=#3399FF;shape=mxgraph.azure.user;dashed=1;fontSize=14;fontColor=#004C99" vertex="1" parent="1">
          <mxGeometry x="92" y="680" width="47.5" height="50" as="geometry" />
        </mxCell>
        <mxCell id="jVHy-TlEPuJ3F6lB3WnW-19" value="" style="verticalLabelPosition=bottom;html=1;verticalAlign=top;strokeColor=none;fillColor=#3399FF;shape=mxgraph.azure.github_code;dashed=1;fontSize=14;fontColor=#004C99" vertex="1" parent="1">
          <mxGeometry x="133" y="560" width="50" height="50" as="geometry" />
        </mxCell>
        <mxCell id="jVHy-TlEPuJ3F6lB3WnW-20" value="" style="verticalLabelPosition=bottom;html=1;verticalAlign=top;strokeColor=none;fillColor=#3399FF;shape=mxgraph.azure.dropbox_code_source;dashed=1;fontSize=14;fontColor=#004C99" vertex="1" parent="1">
          <mxGeometry x="73" y="563" width="50" height="47.5" as="geometry" />
        </mxCell>
        <mxCell id="jVHy-TlEPuJ3F6lB3WnW-21" value="Repositories" style="text;html=1;strokeColor=none;fillColor=none;align=center;verticalAlign=middle;whiteSpace=wrap;overflow=hidden;dashed=1;fontSize=14;fontColor=#004C99" vertex="1" parent="1">
          <mxGeometry x="60" y="620" width="120" height="20" as="geometry" />
        </mxCell>
        <mxCell id="jVHy-TlEPuJ3F6lB3WnW-22" value="&lt;font color=&quot;#ff8000&quot;&gt;Customer Integration&lt;/font&gt;" style="text;html=1;strokeColor=none;fillColor=#D5E8D4;align=center;verticalAlign=middle;whiteSpace=wrap;overflow=hidden;dashed=1;fontSize=36;fontColor=#FFFFFF;fontFamily=Helvetica;fontStyle=1" vertex="1" parent="1">
          <mxGeometry x="40" y="50" width="1060" height="50" as="geometry" />
        </mxCell>
        <mxCell id="jVHy-TlEPuJ3F6lB3WnW-23" value="CVS" style="rounded=1;whiteSpace=wrap;html=1;dashed=1;strokeColor=none;strokeWidth=2;fillColor=#FFFFFF;fontFamily=Helvetica;fontSize=14;fontColor=#FFB366;opacity=75;verticalAlign=top;fontStyle=1" vertex="1" parent="1">
          <mxGeometry x="410" y="190" width="140" height="100" as="geometry" />
        </mxCell>
        <mxCell id="jVHy-TlEPuJ3F6lB3WnW-24" style="edgeStyle=orthogonalEdgeStyle;rounded=0;orthogonalLoop=1;jettySize=auto;html=1;entryX=0.5;entryY=0.16;entryDx=0;entryDy=0;entryPerimeter=0;" edge="1" parent="1" source="jVHy-TlEPuJ3F6lB3WnW-25" target="jVHy-TlEPuJ3F6lB3WnW-48">
          <mxGeometry relative="1" as="geometry" />
        </mxCell>
        <mxCell id="jVHy-TlEPuJ3F6lB3WnW-25" value="DataSet" style="rounded=1;whiteSpace=wrap;html=1;dashed=1;strokeColor=none;strokeWidth=2;fillColor=#FFFFFF;fontFamily=Helvetica;fontSize=14;fontColor=#FFB366;opacity=75;verticalAlign=top;fontStyle=1" vertex="1" parent="1">
          <mxGeometry x="594" y="194" width="140" height="166" as="geometry" />
        </mxCell>
        <mxCell id="jVHy-TlEPuJ3F6lB3WnW-26" value="Fulfill Order" style="rounded=1;whiteSpace=wrap;html=1;dashed=1;strokeColor=none;strokeWidth=2;fillColor=#FFFFFF;fontFamily=Helvetica;fontSize=14;fontColor=#FFB366;opacity=75;verticalAlign=top;fontStyle=1" vertex="1" parent="1">
          <mxGeometry x="772.5" y="203" width="140" height="110" as="geometry" />
        </mxCell>
        <mxCell id="jVHy-TlEPuJ3F6lB3WnW-27" value="Producer" style="rounded=1;whiteSpace=wrap;html=1;dashed=1;strokeColor=none;strokeWidth=2;fillColor=#FFFFFF;fontFamily=Helvetica;fontSize=14;fontColor=#FFB366;opacity=75;verticalAlign=top;fontStyle=1" vertex="1" parent="1">
          <mxGeometry x="232.5" y="194" width="140" height="126" as="geometry" />
        </mxCell>
        <mxCell id="jVHy-TlEPuJ3F6lB3WnW-29" value="Notification&lt;br&gt;(Success/Failed)" style="verticalLabelPosition=bottom;html=1;verticalAlign=top;strokeColor=none;fillColor=#3399FF;shape=mxgraph.azure.certificate;dashed=1;fontFamily=Helvetica;fontSize=14;fontColor=#004C99" vertex="1" parent="1">
          <mxGeometry x="998" y="399" width="50" height="40" as="geometry" />
        </mxCell>
        <mxCell id="jVHy-TlEPuJ3F6lB3WnW-32" value="" style="arrow;html=1;endArrow=block;endFill=1;strokeColor=none;strokeWidth=4;fontFamily=Helvetica;fontSize=36;fontColor=#FFB366;fillColor=#FFB366;" edge="1" parent="1">
          <mxGeometry width="100" height="100" relative="1" as="geometry">
            <mxPoint x="167" y="283" as="sourcePoint" />
            <mxPoint x="247" y="283" as="targetPoint" />
          </mxGeometry>
        </mxCell>
        <mxCell id="jVHy-TlEPuJ3F6lB3WnW-33" value="" style="arrow;html=1;endArrow=block;endFill=1;strokeColor=none;strokeWidth=4;fontFamily=Helvetica;fontSize=36;fontColor=#FFB366;fillColor=#FFB366;" edge="1" parent="1">
          <mxGeometry width="100" height="100" relative="1" as="geometry">
            <mxPoint x="542" y="290" as="sourcePoint" />
            <mxPoint x="607" y="290" as="targetPoint" />
          </mxGeometry>
        </mxCell>
        <mxCell id="jVHy-TlEPuJ3F6lB3WnW-34" value="" style="arrow;html=1;endArrow=block;endFill=1;strokeColor=none;strokeWidth=4;fontFamily=Helvetica;fontSize=36;fontColor=#FFB366;fillColor=#FFB366;entryX=-0.024;entryY=0.937;entryDx=0;entryDy=0;entryPerimeter=0;" edge="1" parent="1" target="jVHy-TlEPuJ3F6lB3WnW-7">
          <mxGeometry width="100" height="100" relative="1" as="geometry">
            <mxPoint x="206" y="750" as="sourcePoint" />
            <mxPoint x="286" y="750" as="targetPoint" />
          </mxGeometry>
        </mxCell>
        <mxCell id="jVHy-TlEPuJ3F6lB3WnW-35" value="Input" style="verticalLabelPosition=bottom;html=1;verticalAlign=top;strokeColor=none;fillColor=#3399FF;shape=mxgraph.azure.storage_blob;dashed=1;fontFamily=Helvetica;fontSize=14;fontColor=#004C99" vertex="1" parent="1">
          <mxGeometry x="450" y="215" width="50" height="45" as="geometry" />
        </mxCell>
        <mxCell id="jVHy-TlEPuJ3F6lB3WnW-36" value="Output - JSON" style="verticalLabelPosition=bottom;html=1;verticalAlign=top;strokeColor=none;fillColor=#3399FF;shape=mxgraph.azure.storage_blob;dashed=1;fontFamily=Helvetica;fontSize=14;fontColor=#004C99" vertex="1" parent="1">
          <mxGeometry x="450" y="441.5" width="50" height="45" as="geometry" />
        </mxCell>
        <mxCell id="jVHy-TlEPuJ3F6lB3WnW-41" value="Pipeline" style="outlineConnect=0;dashed=0;verticalLabelPosition=bottom;verticalAlign=top;align=center;html=1;shape=mxgraph.aws3.data_pipeline;fillColor=#F58534;gradientColor=none;" vertex="1" parent="1">
          <mxGeometry x="630.25" y="466" width="67.5" height="85" as="geometry" />
        </mxCell>
        <mxCell id="jVHy-TlEPuJ3F6lB3WnW-42" value="" style="shape=image;html=1;verticalAlign=top;verticalLabelPosition=bottom;labelBackgroundColor=#ffffff;imageAspect=0;aspect=fixed;image=https://cdn4.iconfinder.com/data/icons/file-extension-3/115/eps_extension_file_name-26-128.png" vertex="1" parent="1">
          <mxGeometry x="612" y="225" width="58" height="58" as="geometry" />
        </mxCell>
        <mxCell id="jVHy-TlEPuJ3F6lB3WnW-43" value="" style="shape=image;html=1;verticalAlign=top;verticalLabelPosition=bottom;labelBackgroundColor=#ffffff;imageAspect=0;aspect=fixed;image=https://cdn2.iconfinder.com/data/icons/woothemes/PNG/document_xml.png" vertex="1" parent="1">
          <mxGeometry x="607" y="297" width="43" height="43" as="geometry" />
        </mxCell>
        <mxCell id="jVHy-TlEPuJ3F6lB3WnW-44" value="" style="dashed=0;outlineConnect=0;html=1;align=center;labelPosition=center;verticalLabelPosition=bottom;verticalAlign=top;shape=mxgraph.webicons.json_2;gradientColor=#DFDEDE" vertex="1" parent="1">
          <mxGeometry x="660" y="297" width="60" height="43" as="geometry" />
        </mxCell>
        <mxCell id="jVHy-TlEPuJ3F6lB3WnW-45" value="" style="arrow;html=1;endArrow=block;endFill=1;strokeColor=none;strokeWidth=4;fontFamily=Helvetica;fontSize=36;fontColor=#FFB366;fillColor=#FFB366;" edge="1" parent="1">
          <mxGeometry width="100" height="100" relative="1" as="geometry">
            <mxPoint x="607" y="480" as="sourcePoint" />
            <mxPoint x="524.5" y="482" as="targetPoint" />
          </mxGeometry>
        </mxCell>
        <mxCell id="jVHy-TlEPuJ3F6lB3WnW-46" style="edgeStyle=orthogonalEdgeStyle;rounded=0;orthogonalLoop=1;jettySize=auto;html=1;entryX=0.5;entryY=0;entryDx=0;entryDy=0;entryPerimeter=0;" edge="1" parent="1" source="jVHy-TlEPuJ3F6lB3WnW-48" target="jVHy-TlEPuJ3F6lB3WnW-41">
          <mxGeometry relative="1" as="geometry" />
        </mxCell>
        <mxCell id="jVHy-TlEPuJ3F6lB3WnW-47" value="" style="edgeStyle=orthogonalEdgeStyle;rounded=0;orthogonalLoop=1;jettySize=auto;html=1;" edge="1" parent="1" source="jVHy-TlEPuJ3F6lB3WnW-48" target="jVHy-TlEPuJ3F6lB3WnW-41">
          <mxGeometry relative="1" as="geometry" />
        </mxCell>
        <mxCell id="jVHy-TlEPuJ3F6lB3WnW-48" value="DataFlow" style="sketch=0;html=1;fillColor=#5184F3;strokeColor=none;verticalAlign=top;labelPosition=center;verticalLabelPosition=bottom;align=center;spacingTop=-6;fontSize=11;fontStyle=1;fontColor=#999999;shape=mxgraph.gcp2.hexIcon;prIcon=cloud_dataflow" vertex="1" parent="1">
          <mxGeometry x="630.25" y="377" width="66" height="58.5" as="geometry" />
        </mxCell>
        <mxCell id="jVHy-TlEPuJ3F6lB3WnW-49" value="" style="sketch=0;html=1;dashed=0;whitespace=wrap;fillColor=#2875E2;strokeColor=#ffffff;points=[[0.005,0.63,0],[0.1,0.2,0],[0.9,0.2,0],[0.5,0,0],[0.995,0.63,0],[0.72,0.99,0],[0.5,1,0],[0.28,0.99,0]];shape=mxgraph.kubernetes.icon;prIcon=api" vertex="1" parent="1">
          <mxGeometry x="802.5" y="224.5" width="80" height="85" as="geometry" />
        </mxCell>
        <mxCell id="jVHy-TlEPuJ3F6lB3WnW-50" value="Receive Part" style="rounded=1;whiteSpace=wrap;html=1;dashed=1;strokeColor=none;strokeWidth=2;fillColor=#FFFFFF;fontFamily=Helvetica;fontSize=14;fontColor=#FFB366;opacity=75;verticalAlign=top;fontStyle=1" vertex="1" parent="1">
          <mxGeometry x="772.5" y="335" width="140" height="110" as="geometry" />
        </mxCell>
        <mxCell id="jVHy-TlEPuJ3F6lB3WnW-51" value="" style="sketch=0;html=1;dashed=0;whitespace=wrap;fillColor=#2875E2;strokeColor=#ffffff;points=[[0.005,0.63,0],[0.1,0.2,0],[0.9,0.2,0],[0.5,0,0],[0.995,0.63,0],[0.72,0.99,0],[0.5,1,0],[0.28,0.99,0]];shape=mxgraph.kubernetes.icon;prIcon=api" vertex="1" parent="1">
          <mxGeometry x="802.5" y="356.5" width="80" height="85" as="geometry" />
        </mxCell>
        <mxCell id="jVHy-TlEPuJ3F6lB3WnW-53" value="" style="aspect=fixed;html=1;points=[];align=center;image;fontSize=12;image=img/lib/azure2/compute/Function_Apps.svg;" vertex="1" parent="1">
          <mxGeometry x="630.25" y="610" width="62.33" height="55" as="geometry" />
        </mxCell>
        <mxCell id="jVHy-TlEPuJ3F6lB3WnW-54" value="" style="arrow;html=1;endArrow=block;endFill=1;strokeColor=none;strokeWidth=4;fontFamily=Helvetica;fontSize=36;fontColor=#FFB366;fillColor=#FFB366;exitX=0.821;exitY=0.222;exitDx=0;exitDy=0;exitPerimeter=0;entryX=0.303;entryY=0.976;entryDx=0;entryDy=0;entryPerimeter=0;" edge="1" parent="1" source="jVHy-TlEPuJ3F6lB3WnW-1" target="jVHy-TlEPuJ3F6lB3WnW-6">
          <mxGeometry width="100" height="100" relative="1" as="geometry">
            <mxPoint x="792.8000000000002" y="619.98" as="sourcePoint" />
            <mxPoint x="793" y="560" as="targetPoint" />
            <Array as="points">
              <mxPoint x="763" y="570" />
            </Array>
          </mxGeometry>
        </mxCell>
        <mxCell id="jVHy-TlEPuJ3F6lB3WnW-55" value="" style="arrow;html=1;endArrow=block;endFill=1;strokeColor=none;strokeWidth=4;fontFamily=Helvetica;fontSize=36;fontColor=#FFB366;fillColor=#FFB366;entryX=0.153;entryY=0.222;entryDx=0;entryDy=0;entryPerimeter=0;" edge="1" parent="1" target="jVHy-TlEPuJ3F6lB3WnW-1">
          <mxGeometry width="100" height="100" relative="1" as="geometry">
            <mxPoint x="475" y="520" as="sourcePoint" />
            <mxPoint x="790" y="701.5" as="targetPoint" />
          </mxGeometry>
        </mxCell>
        <mxCell id="jVHy-TlEPuJ3F6lB3WnW-56" value="" style="aspect=fixed;html=1;points=[];align=center;image;fontSize=12;image=img/lib/azure2/analytics/Event_Hubs.svg;" vertex="1" parent="1">
          <mxGeometry x="263" y="237" width="67" height="60" as="geometry" />
        </mxCell>
        <mxCell id="jVHy-TlEPuJ3F6lB3WnW-57" value="Receiver" style="rounded=1;whiteSpace=wrap;html=1;dashed=1;strokeColor=none;strokeWidth=2;fillColor=#FFFFFF;fontFamily=Helvetica;fontSize=14;fontColor=#FFB366;opacity=75;verticalAlign=top;fontStyle=1" vertex="1" parent="1">
          <mxGeometry x="230" y="370" width="140" height="126" as="geometry" />
        </mxCell>
        <mxCell id="jVHy-TlEPuJ3F6lB3WnW-58" value="" style="outlineConnect=0;dashed=0;verticalLabelPosition=bottom;verticalAlign=top;align=center;html=1;shape=mxgraph.aws3.android;fillColor=#115193;gradientColor=none;" vertex="1" parent="1">
          <mxGeometry x="264" y="411" width="66" height="69" as="geometry" />
        </mxCell>
        <mxCell id="jVHy-TlEPuJ3F6lB3WnW-59" value="" style="arrow;html=1;endArrow=block;endFill=1;strokeColor=none;strokeWidth=4;fontFamily=Helvetica;fontSize=36;fontColor=#FFB366;fillColor=#FFB366;opacity=100" edge="1" parent="1">
          <mxGeometry width="100" height="100" relative="1" as="geometry">
            <mxPoint x="347" y="432.5" as="sourcePoint" />
            <mxPoint x="410" y="433" as="targetPoint" />
          </mxGeometry>
        </mxCell>
        <mxCell id="jVHy-TlEPuJ3F6lB3WnW-60" value="" style="arrow;html=1;endArrow=block;endFill=1;strokeColor=none;strokeWidth=4;fontFamily=Helvetica;fontSize=36;fontColor=#FFB366;fillColor=#FFB366;entryX=0.5;entryY=0;entryDx=0;entryDy=0;" edge="1" parent="1" source="jVHy-TlEPuJ3F6lB3WnW-27" target="jVHy-TlEPuJ3F6lB3WnW-57">
          <mxGeometry width="100" height="100" relative="1" as="geometry">
            <mxPoint x="240" y="586.25" as="sourcePoint" />
            <mxPoint x="320" y="586.25" as="targetPoint" />
          </mxGeometry>
        </mxCell>
        <mxCell id="jVHy-TlEPuJ3F6lB3WnW-61" value="" style="group" vertex="1" connectable="0" parent="1">
          <mxGeometry x="402" y="300" width="77.5" height="84" as="geometry" />
        </mxCell>
        <mxCell id="jVHy-TlEPuJ3F6lB3WnW-37" value="XML" style="rounded=1;whiteSpace=wrap;html=1;dashed=1;strokeColor=none;strokeWidth=2;fillColor=#FFFFFF;fontFamily=Helvetica;fontSize=14;fontColor=#FFB366;opacity=75;verticalAlign=top;fontStyle=1" vertex="1" parent="jVHy-TlEPuJ3F6lB3WnW-61">
          <mxGeometry width="77.5" height="84" as="geometry" />
        </mxCell>
        <mxCell id="jVHy-TlEPuJ3F6lB3WnW-38" value="Input" style="verticalLabelPosition=bottom;html=1;verticalAlign=top;strokeColor=none;fillColor=#3399FF;shape=mxgraph.azure.storage_blob;dashed=1;fontFamily=Helvetica;fontSize=14;fontColor=#004C99" vertex="1" parent="jVHy-TlEPuJ3F6lB3WnW-61">
          <mxGeometry x="25.363636363636363" y="21" width="28.18181818181818" height="36.34615384615385" as="geometry" />
        </mxCell>
        <mxCell id="jVHy-TlEPuJ3F6lB3WnW-62" value="" style="group" vertex="1" connectable="0" parent="1">
          <mxGeometry x="490" y="300" width="67.5" height="84" as="geometry" />
        </mxCell>
        <mxCell id="jVHy-TlEPuJ3F6lB3WnW-63" value="JSON" style="rounded=1;whiteSpace=wrap;html=1;dashed=1;strokeColor=none;strokeWidth=2;fillColor=#FFFFFF;fontFamily=Helvetica;fontSize=14;fontColor=#FFB366;opacity=75;verticalAlign=top;fontStyle=1" vertex="1" parent="jVHy-TlEPuJ3F6lB3WnW-62">
          <mxGeometry width="67.5" height="84" as="geometry" />
        </mxCell>
        <mxCell id="jVHy-TlEPuJ3F6lB3WnW-64" value="Input" style="verticalLabelPosition=bottom;html=1;verticalAlign=top;strokeColor=none;fillColor=#3399FF;shape=mxgraph.azure.storage_blob;dashed=1;fontFamily=Helvetica;fontSize=14;fontColor=#004C99" vertex="1" parent="jVHy-TlEPuJ3F6lB3WnW-62">
          <mxGeometry x="22.09090909090909" y="21" width="24.545454545454543" height="36.34615384615385" as="geometry" />
        </mxCell>
        <mxCell id="jVHy-TlEPuJ3F6lB3WnW-66" value="" style="arrow;html=1;endArrow=block;endFill=1;strokeColor=none;strokeWidth=4;fontFamily=Helvetica;fontSize=36;fontColor=#FFB366;fillColor=#FFB366;entryX=0.006;entryY=0.763;entryDx=0;entryDy=0;entryPerimeter=0;" edge="1" parent="1" target="jVHy-TlEPuJ3F6lB3WnW-7">
          <mxGeometry width="100" height="100" relative="1" as="geometry">
            <mxPoint x="840" y="631" as="sourcePoint" />
            <mxPoint x="937.5250000000001" y="639.44" as="targetPoint" />
            <Array as="points">
              <mxPoint x="800" y="614" />
            </Array>
          </mxGeometry>
        </mxCell>
      </root>
    </mxGraphModel>
  </diagram>
</mxfile>
